<svg xmlns="http://www.w3.org/2000/svg" xmlns:xlink="http://www.w3.org/1999/xlink" id="processonSvg1000" viewBox="165.0 167.0 935.5 338.5" width="935.5" height="338.5"><defs id="ProcessOnDefs1001"><marker id="ProcessOnMarker1025" markerUnits="userSpaceOnUse" orient="auto" markerWidth="16.23606797749979" markerHeight="10.550836550532098" viewBox="-1.0 -1.3763819204711736 16.23606797749979 10.550836550532098" refX="-1.0" refY="3.8990363547948754"><path id="ProcessOnPath1026" d="M12.0 3.8990363547948754L0.0 7.798072709589751V0.0Z" stroke="#323232" stroke-width="2.0" fill="#323232" transform="matrix(1.0,0.0,0.0,1.0,0.0,0.0)"/></marker><marker id="ProcessOnMarker1029" markerUnits="userSpaceOnUse" orient="auto" markerWidth="16.23606797749979" markerHeight="10.550836550532098" viewBox="-1.0 -1.3763819204711736 16.23606797749979 10.550836550532098" refX="-1.0" refY="3.8990363547948754"><path id="ProcessOnPath1030" d="M12.0 3.8990363547948754L0.0 7.798072709589751V0.0Z" stroke="#323232" stroke-width="2.0" fill="#323232" transform="matrix(1.0,0.0,0.0,1.0,0.0,0.0)"/></marker><marker id="ProcessOnMarker1039" markerUnits="userSpaceOnUse" orient="auto" markerWidth="16.23606797749979" markerHeight="10.550836550532098" viewBox="-1.0 -1.3763819204711736 16.23606797749979 10.550836550532098" refX="-1.0" refY="3.8990363547948754"><path id="ProcessOnPath1040" d="M12.0 3.8990363547948754L0.0 7.798072709589751V0.0Z" stroke="#323232" stroke-width="2.0" fill="#323232" transform="matrix(1.0,0.0,0.0,1.0,0.0,0.0)"/></marker><marker id="ProcessOnMarker1045" markerUnits="userSpaceOnUse" orient="auto" markerWidth="16.23606797749979" markerHeight="10.550836550532098" viewBox="-1.0 -1.3763819204711736 16.23606797749979 10.550836550532098" refX="-1.0" refY="3.8990363547948754"><path id="ProcessOnPath1046" d="M12.0 3.8990363547948754L0.0 7.798072709589751V0.0Z" stroke="#323232" stroke-width="2.0" fill="#323232" transform="matrix(1.0,0.0,0.0,1.0,0.0,0.0)"/></marker><marker id="ProcessOnMarker1066" markerUnits="userSpaceOnUse" orient="auto" markerWidth="16.23606797749979" markerHeight="10.550836550532098" viewBox="-1.0 -1.3763819204711736 16.23606797749979 10.550836550532098" refX="-1.0" refY="3.8990363547948754"><path id="ProcessOnPath1067" d="M12.0 3.8990363547948754L0.0 7.798072709589751V0.0Z" stroke="#323232" stroke-width="2.0" fill="#323232" transform="matrix(1.0,0.0,0.0,1.0,0.0,0.0)"/></marker><marker id="ProcessOnMarker1079" markerUnits="userSpaceOnUse" orient="auto" markerWidth="16.23606797749979" markerHeight="10.550836550532098" viewBox="-1.0 -1.3763819204711736 16.23606797749979 10.550836550532098" refX="-1.0" refY="3.8990363547948754"><path id="ProcessOnPath1080" d="M12.0 3.8990363547948754L0.0 7.798072709589751V0.0Z" stroke="#323232" stroke-width="2.0" fill="#323232" transform="matrix(1.0,0.0,0.0,1.0,0.0,0.0)"/></marker><marker id="ProcessOnMarker1098" markerUnits="userSpaceOnUse" orient="auto" markerWidth="16.23606797749979" markerHeight="10.550836550532098" viewBox="-1.0 -1.3763819204711736 16.23606797749979 10.550836550532098" refX="-1.0" refY="3.8990363547948754"><path id="ProcessOnPath1099" d="M12.0 3.8990363547948754L0.0 7.798072709589751V0.0Z" stroke="#323232" stroke-width="2.0" fill="#323232" transform="matrix(1.0,0.0,0.0,1.0,0.0,0.0)"/></marker><marker id="ProcessOnMarker1108" markerUnits="userSpaceOnUse" orient="auto" markerWidth="16.23606797749979" markerHeight="10.550836550532098" viewBox="-1.0 -1.3763819204711736 16.23606797749979 10.550836550532098" refX="-1.0" refY="3.8990363547948754"><path id="ProcessOnPath1109" d="M12.0 3.8990363547948754L0.0 7.798072709589751V0.0Z" stroke="#323232" stroke-width="2.0" fill="#323232" transform="matrix(1.0,0.0,0.0,1.0,0.0,0.0)"/></marker></defs><g id="ProcessOnG1002"><path id="ProcessOnPath1003" d="M165.0 167.0H1100.5V505.5H165.0V167.0Z" fill="none"/><g id="ProcessOnG1004"><g id="ProcessOnG1005" transform="matrix(1.0,0.0,0.0,1.0,614.0,187.0)" opacity="1.0"><path id="ProcessOnPath1006" d="M0.0 33.0C0.0 -11.0 149.0 -11.0 149.0 33.0C149.0 77.0 0.0 77.0 0.0 33.0Z" stroke="#323232" stroke-width="2.0" stroke-dasharray="none" opacity="1.0" fill="#ffffff"/></g><g id="ProcessOnG1007" transform="matrix(1.0,0.0,0.0,1.0,608.5,200.0)" opacity="1.0"><path id="ProcessOnPath1008" d="M0.0 0.0L160.0 0.0L160.0 40.0L0.0 40.0Z" stroke="#323232" stroke-width="0.0" stroke-dasharray="none" opacity="1.0" fill="none"/><g id="ProcessOnG1009" transform="matrix(1.0,0.0,0.0,1.0,0.0,11.875)"><text id="ProcessOnText1010" fill="#000000" font-weight="normal" font-style="normal" text-decoration="blink" font-family="微软雅黑" text-anchor="middle" font-size="13" x="80.0" y="13.325">ShowhelloMessage接口</text></g></g><g id="ProcessOnG1011" transform="matrix(1.0,0.0,0.0,1.0,523.0,348.0)" opacity="1.0"><path id="ProcessOnPath1012" d="M0.0 30.5C0.0 -10.166666666666666 112.0 -10.166666666666666 112.0 30.5C112.0 71.16666666666667 0.0 71.16666666666667 0.0 30.5Z" stroke="#323232" stroke-width="2.0" stroke-dasharray="none" opacity="1.0" fill="#ffffff"/></g><g id="ProcessOnG1013" transform="matrix(1.0,0.0,0.0,1.0,727.0,348.0)" opacity="1.0"><path id="ProcessOnPath1014" d="M0.0 30.5C0.0 -10.166666666666666 112.0 -10.166666666666666 112.0 30.5C112.0 71.16666666666667 0.0 71.16666666666667 0.0 30.5Z" stroke="#323232" stroke-width="2.0" stroke-dasharray="none" opacity="1.0" fill="#ffffff"/></g><g id="ProcessOnG1015" transform="matrix(1.0,0.0,0.0,1.0,499.0,358.5)" opacity="1.0"><path id="ProcessOnPath1016" d="M0.0 0.0L160.0 0.0L160.0 40.0L0.0 40.0Z" stroke="#323232" stroke-width="0.0" stroke-dasharray="none" opacity="1.0" fill="none"/><g id="ProcessOnG1017" transform="matrix(1.0,0.0,0.0,1.0,0.0,11.875)"><text id="ProcessOnText1018" fill="#000000" font-weight="normal" font-style="normal" text-decoration="blink" font-family="微软雅黑" text-anchor="middle" font-size="13" x="80.0" y="13.325">HelloWorld实现类</text></g></g><g id="ProcessOnG1019" transform="matrix(1.0,0.0,0.0,1.0,703.0,358.5)" opacity="1.0"><path id="ProcessOnPath1020" d="M0.0 0.0L160.0 0.0L160.0 40.0L0.0 40.0Z" stroke="#323232" stroke-width="0.0" stroke-dasharray="none" opacity="1.0" fill="none"/><g id="ProcessOnG1021" transform="matrix(1.0,0.0,0.0,1.0,0.0,11.875)"><text id="ProcessOnText1022" fill="#000000" font-weight="normal" font-style="normal" text-decoration="blink" font-family="微软雅黑" text-anchor="middle" font-size="13" x="80.0" y="13.325">HelloChine实现类</text></g></g><g id="ProcessOnG1023"><path id="ProcessOnPath1024" d="M579.0 348.0L579.0 300.5L688.5 300.5L688.5 268.2360679774998" stroke="#323232" stroke-width="2.0" stroke-dasharray="none" fill="none" marker-end="url(#ProcessOnMarker1025)"/></g><g id="ProcessOnG1027"><path id="ProcessOnPath1028" d="M783.0 348.0L783.0 300.5L688.5 300.5L688.5 268.2360679774998" stroke="#323232" stroke-width="2.0" stroke-dasharray="none" fill="none" marker-end="url(#ProcessOnMarker1029)"/></g><g id="ProcessOnG1031" transform="matrix(1.0,0.0,0.0,1.0,365.0,187.0)" opacity="1.0"><path id="ProcessOnPath1032" d="M0.0 33.0C0.0 -11.0 138.0 -11.0 138.0 33.0C138.0 77.0 0.0 77.0 0.0 33.0Z" stroke="#323232" stroke-width="2.0" stroke-dasharray="none" opacity="1.0" fill="#ffffff"/></g><g id="ProcessOnG1033" transform="matrix(1.0,0.0,0.0,1.0,340.0,200.0)" opacity="1.0"><path id="ProcessOnPath1034" d="M0.0 0.0L160.0 0.0L160.0 40.0L0.0 40.0Z" stroke="#323232" stroke-width="0.0" stroke-dasharray="none" opacity="1.0" fill="none"/><g id="ProcessOnG1035" transform="matrix(1.0,0.0,0.0,1.0,0.0,11.875)"><text id="ProcessOnText1036" fill="#000000" font-weight="normal" font-style="normal" text-decoration="blink" font-family="微软雅黑" text-anchor="middle" font-size="13" x="80.0" y="13.325">Person类</text></g></g><g id="ProcessOnG1037"><path id="ProcessOnPath1038" d="M503.0 220.0L558.5 220.0L558.5 220.0L598.7639320225002 220.0" stroke="#323232" stroke-width="2.0" stroke-dasharray="none" fill="none" marker-end="url(#ProcessOnMarker1039)"/></g><g id="ProcessOnG1041" transform="matrix(1.0,0.0,0.0,1.0,840.5,189.5)" opacity="1.0"><path id="ProcessOnPath1042" d="M0.0 30.5C0.0 -10.166666666666666 142.5 -10.166666666666666 142.5 30.5C142.5 71.16666666666667 0.0 71.16666666666667 0.0 30.5Z" stroke="#323232" stroke-width="2.0" stroke-dasharray="none" opacity="1.0" fill="#ffffff"/></g><g id="ProcessOnG1043"><path id="ProcessOnPath1044" d="M763.0 220.0L801.75 220.0L801.75 220.0L825.2639320225002 220.0" stroke="#323232" stroke-width="2.0" stroke-dasharray="none" fill="none" marker-end="url(#ProcessOnMarker1045)"/></g><g id="ProcessOnG1047" transform="matrix(1.0,0.0,0.0,1.0,833.0,200.0)" opacity="1.0"><path id="ProcessOnPath1048" d="M0.0 0.0L160.0 0.0L160.0 40.0L0.0 40.0Z" stroke="#323232" stroke-width="0.0" stroke-dasharray="none" opacity="1.0" fill="none"/><g id="ProcessOnG1049" transform="matrix(1.0,0.0,0.0,1.0,0.0,3.75)"><text id="ProcessOnText1050" fill="#000000" font-weight="normal" font-style="normal" text-decoration="blink" font-family="微软雅黑" text-anchor="middle" font-size="13" x="80.0" y="13.325">带返回值的抽象方法</text><text id="ProcessOnText1051" fill="#000000" font-weight="normal" font-style="normal" text-decoration="blink" font-family="微软雅黑" text-anchor="middle" font-size="13" x="80.0" y="29.575">showMessage()</text></g></g><g id="ProcessOnG1052" transform="matrix(1.0,0.0,0.0,1.0,711.0,189.5)" opacity="1.0"><path id="ProcessOnPath1053" d="M0.0 0.0L160.0 0.0L160.0 40.0L0.0 40.0Z" stroke="#323232" stroke-width="0.0" stroke-dasharray="none" opacity="1.0" fill="none"/><g id="ProcessOnG1054" transform="matrix(1.0,0.0,0.0,1.0,0.0,11.875)"><text id="ProcessOnText1055" fill="#000000" font-weight="normal" font-style="normal" text-decoration="blink" font-family="微软雅黑" text-anchor="middle" font-size="13" x="80.0" y="13.325">定义</text></g></g><g id="ProcessOnG1056" transform="matrix(1.0,0.0,0.0,1.0,597.0,292.0)" opacity="1.0"><path id="ProcessOnPath1057" d="M0.0 0.0L160.0 0.0L160.0 40.0L0.0 40.0Z" stroke="#323232" stroke-width="0.0" stroke-dasharray="none" opacity="1.0" fill="none"/><g id="ProcessOnG1058" transform="matrix(1.0,0.0,0.0,1.0,0.0,11.875)"><text id="ProcessOnText1059" fill="#000000" font-weight="normal" font-style="normal" text-decoration="blink" font-family="微软雅黑" text-anchor="middle" font-size="13" x="80.0" y="13.325">实现其抽象方法</text></g></g><g id="ProcessOnG1060" transform="matrix(1.0,0.0,0.0,1.0,233.0,253.0)" opacity="1.0"><path id="ProcessOnPath1061" d="M0.0 33.0C0.0 -11.0 138.0 -11.0 138.0 33.0C138.0 77.0 0.0 77.0 0.0 33.0Z" stroke="#323232" stroke-width="2.0" stroke-dasharray="none" opacity="1.0" fill="#ffffff"/></g><g id="ProcessOnG1062" transform="matrix(1.0,0.0,0.0,1.0,233.0,374.0)" opacity="1.0"><path id="ProcessOnPath1063" d="M0.0 33.0C0.0 -11.0 138.0 -11.0 138.0 33.0C138.0 77.0 0.0 77.0 0.0 33.0Z" stroke="#323232" stroke-width="2.0" stroke-dasharray="none" opacity="1.0" fill="#ffffff"/></g><g id="ProcessOnG1064"><path id="ProcessOnPath1065" d="M302.0 253.0L302.0 220.0L349.7639320225002 220.0" stroke="#323232" stroke-width="2.0" stroke-dasharray="none" fill="none" marker-end="url(#ProcessOnMarker1066)"/></g><g id="ProcessOnG1068" transform="matrix(1.0,0.0,0.0,1.0,222.0,387.0)" opacity="1.0"><path id="ProcessOnPath1069" d="M0.0 0.0L160.0 0.0L160.0 40.0L0.0 40.0Z" stroke="#323232" stroke-width="0.0" stroke-dasharray="none" opacity="1.0" fill="none"/><g id="ProcessOnG1070" transform="matrix(1.0,0.0,0.0,1.0,0.0,11.875)"><text id="ProcessOnText1071" fill="#000000" font-weight="normal" font-style="normal" text-decoration="blink" font-family="微软雅黑" text-anchor="middle" font-size="13" x="80.0" y="13.325">xml配置文件</text></g></g><g id="ProcessOnG1072" transform="matrix(1.0,0.0,0.0,1.0,222.0,266.0)" opacity="1.0"><path id="ProcessOnPath1073" d="M0.0 0.0L160.0 0.0L160.0 40.0L0.0 40.0Z" stroke="#323232" stroke-width="0.0" stroke-dasharray="none" opacity="1.0" fill="none"/><g id="ProcessOnG1074" transform="matrix(1.0,0.0,0.0,1.0,0.0,3.75)"><text id="ProcessOnText1075" fill="#000000" font-weight="normal" font-style="normal" text-decoration="blink" font-family="微软雅黑" text-anchor="middle" font-size="13" x="80.0" y="13.325">main函数</text><text id="ProcessOnText1076" fill="#000000" font-weight="normal" font-style="normal" text-decoration="blink" font-family="微软雅黑" text-anchor="middle" font-size="13" x="80.0" y="29.575">(程序入口类)</text></g></g><g id="ProcessOnG1077"><path id="ProcessOnPath1078" d="M302.0 319.0L302.0 346.5L302.0 346.5L302.0 358.7639320225002" stroke="#323232" stroke-width="2.0" stroke-dasharray="none" fill="none" marker-end="url(#ProcessOnMarker1079)"/></g><g id="ProcessOnG1081" transform="matrix(1.0,0.0,0.0,1.0,215.5,322.0)" opacity="1.0"><path id="ProcessOnPath1082" d="M0.0 0.0L173.0 0.0L173.0 36.5L0.0 36.5Z" stroke="#323232" stroke-width="0.0" stroke-dasharray="none" opacity="1.0" fill="none"/><g id="ProcessOnG1083" transform="matrix(1.0,0.0,0.0,1.0,0.0,10.125)"><text id="ProcessOnText1084" fill="#000000" font-weight="normal" font-style="normal" text-decoration="blink" font-family="微软雅黑" text-anchor="middle" font-size="13" x="86.5" y="13.325">读取配置文件启动IOC容器</text></g></g><g id="ProcessOnG1085" transform="matrix(1.0,0.0,0.0,1.0,185.0,189.5)" opacity="1.0"><path id="ProcessOnPath1086" d="M0.0 0.0L160.0 0.0L160.0 40.0L0.0 40.0Z" stroke="#323232" stroke-width="0.0" stroke-dasharray="none" opacity="1.0" fill="none"/><g id="ProcessOnG1087" transform="matrix(1.0,0.0,0.0,1.0,0.0,3.75)"><text id="ProcessOnText1088" fill="#000000" font-weight="normal" font-style="normal" text-decoration="blink" font-family="微软雅黑" text-anchor="middle" font-size="13" x="80.0" y="13.325">调用Person类</text><text id="ProcessOnText1089" fill="#000000" font-weight="normal" font-style="normal" text-decoration="blink" font-family="微软雅黑" text-anchor="middle" font-size="13" x="80.0" y="29.575">输出问候信息</text></g></g><g id="ProcessOnG1090" transform="matrix(1.0,0.0,0.0,1.0,733.0,451.0)" opacity="1.0"><path id="ProcessOnPath1091" d="M0.0 0.0L100.0 0.0L100.0 29.0L0.0 29.0Z" stroke="#323232" stroke-width="2.0" stroke-dasharray="none" opacity="1.0" fill="#ffffff"/></g><g id="ProcessOnG1092" transform="matrix(1.0,0.0,0.0,1.0,703.0,445.5)" opacity="1.0"><path id="ProcessOnPath1093" d="M0.0 0.0L160.0 0.0L160.0 40.0L0.0 40.0Z" stroke="#323232" stroke-width="0.0" stroke-dasharray="none" opacity="1.0" fill="none"/><g id="ProcessOnG1094" transform="matrix(1.0,0.0,0.0,1.0,0.0,11.875)"><text id="ProcessOnText1095" fill="#000000" font-weight="normal" font-style="normal" text-decoration="blink" font-family="微软雅黑" text-anchor="middle" font-size="13" x="80.0" y="13.325">大家好</text></g></g><g id="ProcessOnG1096"><path id="ProcessOnPath1097" d="M783.0 451.0L783.0 430.0L783.0 430.0L783.0 424.2360679774998" stroke="#323232" stroke-width="2.0" stroke-dasharray="none" fill="none" marker-end="url(#ProcessOnMarker1098)"/></g><g id="ProcessOnG1100" transform="matrix(1.0,0.0,0.0,1.0,718.0,411.0)" opacity="1.0"><path id="ProcessOnPath1101" d="M0.0 0.0L160.0 0.0L160.0 40.0L0.0 40.0Z" stroke="#323232" stroke-width="0.0" stroke-dasharray="none" opacity="1.0" fill="none"/><g id="ProcessOnG1102" transform="matrix(1.0,0.0,0.0,1.0,0.0,11.875)"><text id="ProcessOnText1103" fill="#000000" font-weight="normal" font-style="normal" text-decoration="blink" font-family="微软雅黑" text-anchor="middle" font-size="13" x="80.0" y="13.325">返回</text></g></g><g id="ProcessOnG1104" transform="matrix(1.0,0.0,0.0,1.0,529.0,451.0)" opacity="1.0"><path id="ProcessOnPath1105" d="M0.0 0.0L100.0 0.0L100.0 29.0L0.0 29.0Z" stroke="#323232" stroke-width="2.0" stroke-dasharray="none" opacity="1.0" fill="#ffffff"/></g><g id="ProcessOnG1106"><path id="ProcessOnPath1107" d="M579.0 451.0L579.0 430.0L579.0 430.0L579.0 424.2360679774998" stroke="#323232" stroke-width="2.0" stroke-dasharray="none" fill="none" marker-end="url(#ProcessOnMarker1108)"/></g><g id="ProcessOnG1110" transform="matrix(1.0,0.0,0.0,1.0,514.0,411.0)" opacity="1.0"><path id="ProcessOnPath1111" d="M0.0 0.0L160.0 0.0L160.0 40.0L0.0 40.0Z" stroke="#323232" stroke-width="0.0" stroke-dasharray="none" opacity="1.0" fill="none"/><g id="ProcessOnG1112" transform="matrix(1.0,0.0,0.0,1.0,0.0,11.875)"><text id="ProcessOnText1113" fill="#000000" font-weight="normal" font-style="normal" text-decoration="blink" font-family="微软雅黑" text-anchor="middle" font-size="13" x="80.0" y="13.325">返回</text></g></g><g id="ProcessOnG1114" transform="matrix(1.0,0.0,0.0,1.0,499.0,445.5)" opacity="1.0"><path id="ProcessOnPath1115" d="M0.0 0.0L160.0 0.0L160.0 40.0L0.0 40.0Z" stroke="#323232" stroke-width="0.0" stroke-dasharray="none" opacity="1.0" fill="none"/><g id="ProcessOnG1116" transform="matrix(1.0,0.0,0.0,1.0,0.0,11.875)"><text id="ProcessOnText1117" fill="#000000" font-weight="normal" font-style="normal" text-decoration="blink" font-family="微软雅黑" text-anchor="middle" font-size="13" x="80.0" y="13.325">Hello Everyone</text></g></g><g id="ProcessOnG1118" transform="matrix(1.0,0.0,0.0,1.0,469.0,187.0)" opacity="1.0"><path id="ProcessOnPath1119" d="M0.0 0.0L160.0 0.0L160.0 40.0L0.0 40.0Z" stroke="#323232" stroke-width="0.0" stroke-dasharray="none" opacity="1.0" fill="none"/><g id="ProcessOnG1120" transform="matrix(1.0,0.0,0.0,1.0,0.0,11.875)"><text id="ProcessOnText1121" fill="#000000" font-weight="normal" font-style="normal" text-decoration="blink" font-family="微软雅黑" text-anchor="middle" font-size="13" x="80.0" y="13.325">接受问候信息</text></g></g><g id="ProcessOnG1122" transform="matrix(1.0,0.0,0.0,1.0,840.5,266.0)" opacity="1.0"><path id="ProcessOnPath1123" d="M0.0 0.0L240.0 0.0L240.0 72.0L0.0 72.0Z" stroke="#323232" stroke-width="0.0" stroke-dasharray="none" opacity="1.0" fill="none"/><g id="ProcessOnG1124" transform="matrix(1.0,0.0,0.0,1.0,0.0,11.625)"><text id="ProcessOnText1125" fill="#000000" font-weight="normal" font-style="normal" text-decoration="blink" font-family="微软雅黑" text-anchor="middle" font-size="13" x="120.0" y="13.325">为实现有选择性的输出Hello Everyone或"</text><text id="ProcessOnText1126" fill="#000000" font-weight="normal" font-style="normal" text-decoration="blink" font-family="微软雅黑" text-anchor="middle" font-size="13" x="120.0" y="29.575">大家好"的条件</text><text id="ProcessOnText1127" fill="#000000" font-weight="normal" font-style="normal" text-decoration="blink" font-family="微软雅黑" text-anchor="middle" font-size="13" x="120.0" y="45.825">其选择权在在配置文件中</text></g></g></g></g></svg>